HIERARCHY
ROOT root
{
	OFFSET	0	13.1	24.9
	CHANNELS 6  Xposition Yposition Zposition Xrotation Yrotation Zrotation
	JOINT spine_1
	{
		OFFSET	0	9.99999	0
		CHANNELS 3  Xrotation Yrotation Zrotation
		JOINT spine_2
		{
			OFFSET	0	112	-10
			CHANNELS 3  Xrotation Yrotation Zrotation
			JOINT spine_3
			{
				OFFSET	0	206.5	19.3
				CHANNELS 3  Xrotation Yrotation Zrotation
				JOINT spine_4
				{
					OFFSET	0	110.4	14.6
					CHANNELS 3  Xrotation Yrotation Zrotation
					JOINT neck_1
					{
						OFFSET	0	71.8	-50.3
						CHANNELS 3  Xrotation Yrotation Zrotation
						JOINT neck_2
						{
							OFFSET	0	86.2	-25.8
							CHANNELS 3  Xrotation Yrotation Zrotation
							JOINT head_ee
							{
								OFFSET	0	179.8	-8.7
								CHANNELS 3  Xrotation Yrotation Zrotation
								End Site
								{
									OFFSET	1	0	0
								}
							}
						}
					}
					JOINT left_clavicle
					{
						OFFSET	-43.2	22.4	-70.8
						CHANNELS 3  Xrotation Yrotation Zrotation
						JOINT left_shoulder
						{
							OFFSET	-93.9	-5.79999	48.7
							CHANNELS 3  Xrotation Yrotation Zrotation
							JOINT left_elbow
							{
								OFFSET	-291.4	-30.8	15.2
								CHANNELS 3  Xrotation Yrotation Zrotation
								JOINT left_lowarm_twist
								{
									OFFSET	-110.7	-3.89999	13.6
									CHANNELS 3  Xrotation Yrotation Zrotation
									JOINT left_hand
									{
										OFFSET	-110.7	-3.89999	13.6
										CHANNELS 3  Xrotation Yrotation Zrotation
										JOINT left_ee
										{
											OFFSET	-80.8	-5.10001	12.1
											CHANNELS 3  Xrotation Yrotation Zrotation
											End Site
											{
												OFFSET	1	0	0
											}
										}
									}
								}
							}
						}
					}
					JOINT right_clavicle
					{
						OFFSET	43.2	22.4	-70.8
						CHANNELS 3  Xrotation Yrotation Zrotation
						JOINT right_shoulder
						{
							OFFSET	93.9	-5.79999	48.7
							CHANNELS 3  Xrotation Yrotation Zrotation
							JOINT right_elbow
							{
								OFFSET	291.4	-30.8	15.2
								CHANNELS 3  Xrotation Yrotation Zrotation
								JOINT right_lowarm_twist
								{
									OFFSET	110.7	-3.89999	13.6
									CHANNELS 3  Xrotation Yrotation Zrotation
									JOINT right_hand
									{
										OFFSET	110.7	-3.89999	13.6
										CHANNELS 3  Xrotation Yrotation Zrotation
										JOINT right_ee
										{
											OFFSET	80.8	-5.10001	12.1
											CHANNELS 3  Xrotation Yrotation Zrotation
											End Site
											{
												OFFSET	1	0	0
											}
										}
									}
								}
							}
						}
					}
				}
			}
		}
	}
	JOINT left_hip
	{
		OFFSET	-82.8	-127.5	0.300001
		CHANNELS 3  Xrotation Yrotation Zrotation
		JOINT left_knee
		{
			OFFSET	-28.2	-396.7	2.2
			CHANNELS 3  Xrotation Yrotation Zrotation
			JOINT left_ankle
			{
				OFFSET	-11.7	-411.3	35.4
				CHANNELS 3  Xrotation Yrotation Zrotation
				JOINT left_toes
				{
					OFFSET	0	-60	-88.6
					CHANNELS 3  Xrotation Yrotation Zrotation
					JOINT left_foot_ee
					{
						OFFSET	-22.5	-16.5	-42.2
						CHANNELS 3  Xrotation Yrotation Zrotation
						End Site
						{
							OFFSET	1	0	0
						}
					}
				}
			}
		}
	}
	JOINT right_hip
	{
		OFFSET	82.8	-127.5	0.300001
		CHANNELS 3  Xrotation Yrotation Zrotation
		JOINT right_knee
		{
			OFFSET	28.2	-396.7	2.2
			CHANNELS 3  Xrotation Yrotation Zrotation
			JOINT right_ankle
			{
				OFFSET	11.7	-411.3	35.4
				CHANNELS 3  Xrotation Yrotation Zrotation
				JOINT right_toes
				{
					OFFSET	0	-60	-88.6
					CHANNELS 3  Xrotation Yrotation Zrotation
					JOINT right_foot_ee
					{
						OFFSET	22.5	-16.5	-42.2
						CHANNELS 3  Xrotation Yrotation Zrotation
						End Site
						{
							OFFSET	1	0	0
						}
					}
				}
			}
		}
	}
}
MOTION
Frames: 7
Frame Time: 0.02
2800.94 716.97 -1473.77 -0.311015054047 71.9622097662 6.57820280433 0.0768038 -0.338193 -3.83335 0.0849724 -0.0937657 -3.84708 0.094919 0.711593 -3.78195 0.0749788 0.105835 -3.84676 0.994008 13.9915 5.06829 1.34505 20.6117 6.75714 -0.0 0.0 -0.0 9.05958 20.4923 15.8893 -14.1551 -31.8233 57.0187 3.31008 -58.6091 1.85823 -69.2606 -6.4517 5.29501 -1.2653 2.18571 -7.49836 -0.0 0.0 -0.0 3.20063 -3.13078 -6.35846 -22.833 24.7222 -61.0819 0.470219 13.1125 -0.0540425 -6.36787 0.267409 -0.768442 3.25103 -30.2711 -30.6465 0.0 0.0 0.0 -11.7118 12.8845 -4.53598 -8.46395 0.254855 1.27278 37.256 -11.0597 -4.80535 25.0597 -0.0 -0.0 -0.0 0.0 -0.0 29.5272 16.2716 -9.29384 -6.92457 -0.22255 -1.03877 -6.66503 9.09201 -1.03791 -4.82751 0.0 0.0 0.0 0.0 0.0 
2780.30771046 724.939 -1480.24156684 0.797199668916 72.1659668308 5.13797396981 0.109288 -0.341056 -3.79106 0.117277 -0.099308 -3.80505 0.127388 0.695239 -3.7424 0.10786 0.095918 -3.80514 -0.185961 13.4364 5.40964 0.103895 19.6144 7.20336 -0.0 0.0 -0.0 8.74193 20.8801 15.3404 -17.5747 -31.5162 56.8058 3.16362 -57.4458 1.73398 -71.1843 -6.69724 5.31132 -1.07136 1.16526 -6.65569 -0.0 0.0 -0.0 3.46631 -3.10025 -6.85557 -23.0691 27.0741 -59.9299 0.524792 14.5726 -0.0671002 -6.36106 0.267077 -0.767636 3.30741 -30.2959 -31.0119 0.0 0.0 0.0 -10.4528 13.5612 -5.25782 -14.4483 0.32045 2.18826 34.6563 -10.5019 -4.54213 26.1361 -0.0 -0.0 -0.0 0.0 -0.0 27.5705 15.875 -8.90297 -7.81719 -0.242048 -1.17436 -5.73625 11.2106 -0.903002 -4.26463 0.0 0.0 0.0 0.0 0.0 
2780.43418538 724.939 -1480.63178663 0.752940953567 71.0791285716 5.1846090775 0.109288 -0.341056 -3.79106 0.117277 -0.099308 -3.80505 0.127388 0.695239 -3.7424 0.10786 0.095918 -3.80514 -0.185961 13.4364 5.40964 0.103895 19.6144 7.20336 -0.0 0.0 -0.0 8.74193 20.8801 15.3404 -17.5747 -31.5162 56.8058 3.16362 -57.4458 1.73398 -71.1843 -6.69724 5.31132 -1.07136 1.16526 -6.65569 -0.0 0.0 -0.0 3.46631 -3.10025 -6.85557 -23.0691 27.0741 -59.9299 0.524792 14.5726 -0.0671002 -6.36106 0.267077 -0.767636 3.30741 -30.2959 -31.0119 0.0 0.0 0.0 -10.4528 13.5612 -5.25782 -14.4483 0.32045 2.18826 34.6563 -10.5019 -4.54213 26.1361 -0.0 -0.0 -0.0 0.0 -0.0 27.5705 15.875 -8.90297 -7.81719 -0.242048 -1.17436 -5.73625 11.2106 -0.903002 -4.26463 0.0 0.0 0.0 0.0 0.0 
2780.53388399 724.939 -1480.92283009 0.723006829018 70.2640168091 5.21633035582 0.109288 -0.341056 -3.79106 0.117277 -0.099308 -3.80505 0.127388 0.695239 -3.7424 0.10786 0.095918 -3.80514 -0.185961 13.4364 5.40964 0.103895 19.6144 7.20336 -0.0 0.0 -0.0 8.74193 20.8801 15.3404 -17.5747 -31.5162 56.8058 3.16362 -57.4458 1.73398 -71.1843 -6.69724 5.31132 -1.07136 1.16526 -6.65569 -0.0 0.0 -0.0 3.46631 -3.10025 -6.85557 -23.0691 27.0741 -59.9299 0.524792 14.5726 -0.0671002 -6.36106 0.267077 -0.767636 3.30741 -30.2959 -31.0119 0.0 0.0 0.0 -10.4528 13.5612 -5.25782 -14.4483 0.32045 2.18826 34.6563 -10.5019 -4.54213 26.1361 -0.0 -0.0 -0.0 0.0 -0.0 27.5705 15.875 -8.90297 -7.81719 -0.242048 -1.17436 -5.73625 11.2106 -0.903002 -4.26463 0.0 0.0 0.0 0.0 0.0 
2780.65500121 724.939 -1481.25941739 0.691229674897 69.3162362308 5.25019111092 0.109288 -0.341056 -3.79106 0.117277 -0.099308 -3.80505 0.127388 0.695239 -3.7424 0.10786 0.095918 -3.80514 -0.185961 13.4364 5.40964 0.103895 19.6144 7.20336 -0.0 0.0 -0.0 8.74193 20.8801 15.3404 -17.5747 -31.5162 56.8058 3.16362 -57.4458 1.73398 -71.1843 -6.69724 5.31132 -1.07136 1.16526 -6.65569 -0.0 0.0 -0.0 3.46631 -3.10025 -6.85557 -23.0691 27.0741 -59.9299 0.524792 14.5726 -0.0671002 -6.36106 0.267077 -0.767636 3.30741 -30.2959 -31.0119 0.0 0.0 0.0 -10.4528 13.5612 -5.25782 -14.4483 0.32045 2.18826 34.6563 -10.5019 -4.54213 26.1361 -0.0 -0.0 -0.0 0.0 -0.0 27.5705 15.875 -8.90297 -7.81719 -0.242048 -1.17436 -5.73625 11.2106 -0.903002 -4.26463 0.0 0.0 0.0 0.0 0.0 
2763.6894044 730.086 -1490.88330408 1.19370340962 69.2749332076 4.50917941305 0.336755 -0.325303 -3.61971 0.344038 -0.094467 -3.63305 0.352807 0.65 -3.57576 0.334976 0.0775075 -3.63345 -0.0107758 13.4775 5.7407 0.283978 19.3748 7.54431 -0.0 0.0 -0.0 8.48339 22.0974 14.7807 -19.8989 -31.0414 56.6777 2.89081 -55.0622 1.50709 -72.1919 -6.82599 5.31654 -0.823146 0.812655 -5.14925 -0.0 0.0 -0.0 3.74392 -2.68627 -7.35769 -22.6571 28.1858 -59.4551 0.552618 15.3098 -0.0742747 -6.17292 0.25796 -0.745373 3.35467 -30.5059 -31.3419 0.0 0.0 0.0 -8.51162 13.2186 -6.40627 -19.5692 0.300515 2.97344 34.2719 -9.71324 -4.48654 27.0102 -0.0 -0.0 -0.0 0.0 -0.0 26.1969 15.4861 -9.11897 -8.57129 -0.256873 -1.28913 -3.87849 8.30323 -0.598093 -2.80549 0.0 0.0 0.0 0.0 0.0 
2728.12643899 733.278 -1497.04287168 3.81247057112 70.7953536652 0.931989236065 0.499496 -0.27945 -3.38448 0.505866 -0.0636468 -3.39539 0.511764 0.622277 -3.33855 0.496223 0.0875232 -3.39485 -3.88881 13.0254 7.69359 -3.66659 17.9339 9.92509 -0.0 0.0 -0.0 7.84363 24.0637 13.5867 -22.9385 -29.6682 58.1372 2.56217 -51.7575 1.24311 -73.1413 -6.94733 5.31938 -0.939573 4.07302 -4.49006 -0.0 0.0 -0.0 3.53363 -1.80684 -6.91395 -22.1591 30.4658 -59.3851 0.646216 17.7508 -0.100912 -6.12623 0.255709 -0.739843 3.48894 -30.236 -32.1845 0.0 0.0 0.0 -4.73203 15.6975 -7.81139 -31.6837 -0.0240965 4.80082 28.7553 -9.4423 -3.8984 30.2704 -0.0 -0.0 -0.0 0.0 -0.0 18.909 14.4815 -7.40034 -1.22929 -0.0486611 -0.182372 -0.842117 12.8146 -0.1325 -4.26456 0.0 0.0 0.0 0.0 0.0 
